<mxfile host="app.diagrams.net" agent="Mozilla/5.0 (Macintosh; Intel Mac OS X 10_15_7) AppleWebKit/537.36 (KHTML, like Gecko) Chrome/138.0.0.0 Safari/537.36" version="27.1.6">
  <diagram name="Page-1" id="9qosbVVtr4r6d1e9rdW8">
    <mxGraphModel dx="976" dy="563" grid="1" gridSize="10" guides="1" tooltips="1" connect="1" arrows="1" fold="1" page="1" pageScale="1" pageWidth="850" pageHeight="1100" math="0" shadow="0">
      <root>
        <mxCell id="0" />
        <mxCell id="1" parent="0" />
        <mxCell id="P09A3FuEv-amuVJtXjTk-11" style="edgeStyle=orthogonalEdgeStyle;rounded=0;orthogonalLoop=1;jettySize=auto;html=1;exitX=1;exitY=0.5;exitDx=0;exitDy=0;" edge="1" parent="1" source="P09A3FuEv-amuVJtXjTk-1" target="P09A3FuEv-amuVJtXjTk-4">
          <mxGeometry relative="1" as="geometry" />
        </mxCell>
        <mxCell id="P09A3FuEv-amuVJtXjTk-1" value="Data source 1 (batch)" style="rounded=1;whiteSpace=wrap;html=1;" vertex="1" parent="1">
          <mxGeometry x="80" y="160" width="80" height="40" as="geometry" />
        </mxCell>
        <mxCell id="P09A3FuEv-amuVJtXjTk-12" style="edgeStyle=orthogonalEdgeStyle;rounded=0;orthogonalLoop=1;jettySize=auto;html=1;exitX=1;exitY=0.5;exitDx=0;exitDy=0;entryX=0;entryY=0.5;entryDx=0;entryDy=0;" edge="1" parent="1" source="P09A3FuEv-amuVJtXjTk-2" target="P09A3FuEv-amuVJtXjTk-5">
          <mxGeometry relative="1" as="geometry" />
        </mxCell>
        <mxCell id="P09A3FuEv-amuVJtXjTk-2" value="Data source 2 (batch)" style="rounded=1;whiteSpace=wrap;html=1;" vertex="1" parent="1">
          <mxGeometry x="80" y="240" width="80" height="40" as="geometry" />
        </mxCell>
        <mxCell id="P09A3FuEv-amuVJtXjTk-13" style="edgeStyle=orthogonalEdgeStyle;rounded=0;orthogonalLoop=1;jettySize=auto;html=1;exitX=1;exitY=0.5;exitDx=0;exitDy=0;" edge="1" parent="1" source="P09A3FuEv-amuVJtXjTk-3" target="P09A3FuEv-amuVJtXjTk-6">
          <mxGeometry relative="1" as="geometry" />
        </mxCell>
        <mxCell id="P09A3FuEv-amuVJtXjTk-3" value="Data source 3 (batch)" style="rounded=1;whiteSpace=wrap;html=1;" vertex="1" parent="1">
          <mxGeometry x="80" y="320" width="80" height="40" as="geometry" />
        </mxCell>
        <mxCell id="P09A3FuEv-amuVJtXjTk-14" style="edgeStyle=orthogonalEdgeStyle;rounded=0;orthogonalLoop=1;jettySize=auto;html=1;exitX=1;exitY=0.5;exitDx=0;exitDy=0;entryX=0;entryY=0.25;entryDx=0;entryDy=0;" edge="1" parent="1" source="P09A3FuEv-amuVJtXjTk-4" target="P09A3FuEv-amuVJtXjTk-8">
          <mxGeometry relative="1" as="geometry" />
        </mxCell>
        <mxCell id="P09A3FuEv-amuVJtXjTk-4" value="ETL 1" style="rounded=1;whiteSpace=wrap;html=1;" vertex="1" parent="1">
          <mxGeometry x="240" y="160" width="80" height="40" as="geometry" />
        </mxCell>
        <mxCell id="P09A3FuEv-amuVJtXjTk-15" style="edgeStyle=orthogonalEdgeStyle;rounded=0;orthogonalLoop=1;jettySize=auto;html=1;exitX=1;exitY=0.5;exitDx=0;exitDy=0;entryX=0;entryY=0.5;entryDx=0;entryDy=0;" edge="1" parent="1" source="P09A3FuEv-amuVJtXjTk-5" target="P09A3FuEv-amuVJtXjTk-8">
          <mxGeometry relative="1" as="geometry" />
        </mxCell>
        <mxCell id="P09A3FuEv-amuVJtXjTk-5" value="ETL 2" style="rounded=1;whiteSpace=wrap;html=1;" vertex="1" parent="1">
          <mxGeometry x="240" y="240" width="80" height="40" as="geometry" />
        </mxCell>
        <mxCell id="P09A3FuEv-amuVJtXjTk-16" style="edgeStyle=orthogonalEdgeStyle;rounded=0;orthogonalLoop=1;jettySize=auto;html=1;exitX=1;exitY=0.5;exitDx=0;exitDy=0;entryX=0;entryY=0.75;entryDx=0;entryDy=0;" edge="1" parent="1" source="P09A3FuEv-amuVJtXjTk-6" target="P09A3FuEv-amuVJtXjTk-8">
          <mxGeometry relative="1" as="geometry" />
        </mxCell>
        <mxCell id="P09A3FuEv-amuVJtXjTk-6" value="ETL 3" style="rounded=1;whiteSpace=wrap;html=1;" vertex="1" parent="1">
          <mxGeometry x="240" y="320" width="80" height="40" as="geometry" />
        </mxCell>
        <mxCell id="P09A3FuEv-amuVJtXjTk-19" style="edgeStyle=orthogonalEdgeStyle;rounded=0;orthogonalLoop=1;jettySize=auto;html=1;exitX=1;exitY=0.25;exitDx=0;exitDy=0;" edge="1" parent="1" source="P09A3FuEv-amuVJtXjTk-7" target="P09A3FuEv-amuVJtXjTk-8">
          <mxGeometry relative="1" as="geometry" />
        </mxCell>
        <mxCell id="P09A3FuEv-amuVJtXjTk-20" style="edgeStyle=orthogonalEdgeStyle;rounded=0;orthogonalLoop=1;jettySize=auto;html=1;exitX=1;exitY=0.75;exitDx=0;exitDy=0;entryX=0.5;entryY=1;entryDx=0;entryDy=0;" edge="1" parent="1" source="P09A3FuEv-amuVJtXjTk-7" target="P09A3FuEv-amuVJtXjTk-9">
          <mxGeometry relative="1" as="geometry" />
        </mxCell>
        <mxCell id="P09A3FuEv-amuVJtXjTk-7" value="Data source 4 (real-time)" style="rounded=1;whiteSpace=wrap;html=1;" vertex="1" parent="1">
          <mxGeometry x="80" y="400" width="80" height="40" as="geometry" />
        </mxCell>
        <mxCell id="P09A3FuEv-amuVJtXjTk-17" style="edgeStyle=orthogonalEdgeStyle;rounded=0;orthogonalLoop=1;jettySize=auto;html=1;exitX=1;exitY=0.5;exitDx=0;exitDy=0;entryX=0;entryY=0.5;entryDx=0;entryDy=0;" edge="1" parent="1" source="P09A3FuEv-amuVJtXjTk-8" target="P09A3FuEv-amuVJtXjTk-9">
          <mxGeometry relative="1" as="geometry" />
        </mxCell>
        <mxCell id="P09A3FuEv-amuVJtXjTk-8" value="Data platform" style="rounded=1;whiteSpace=wrap;html=1;" vertex="1" parent="1">
          <mxGeometry x="400" y="240" width="80" height="40" as="geometry" />
        </mxCell>
        <mxCell id="P09A3FuEv-amuVJtXjTk-21" style="edgeStyle=orthogonalEdgeStyle;rounded=0;orthogonalLoop=1;jettySize=auto;html=1;exitX=0.5;exitY=0;exitDx=0;exitDy=0;entryX=0.5;entryY=1;entryDx=0;entryDy=0;" edge="1" parent="1" source="P09A3FuEv-amuVJtXjTk-9" target="P09A3FuEv-amuVJtXjTk-10">
          <mxGeometry relative="1" as="geometry" />
        </mxCell>
        <mxCell id="P09A3FuEv-amuVJtXjTk-24" style="edgeStyle=orthogonalEdgeStyle;rounded=0;orthogonalLoop=1;jettySize=auto;html=1;exitX=1;exitY=0.5;exitDx=0;exitDy=0;" edge="1" parent="1" source="P09A3FuEv-amuVJtXjTk-9" target="P09A3FuEv-amuVJtXjTk-22">
          <mxGeometry relative="1" as="geometry" />
        </mxCell>
        <mxCell id="P09A3FuEv-amuVJtXjTk-9" value="Feature engineering" style="rounded=1;whiteSpace=wrap;html=1;" vertex="1" parent="1">
          <mxGeometry x="560" y="240" width="80" height="40" as="geometry" />
        </mxCell>
        <mxCell id="P09A3FuEv-amuVJtXjTk-23" style="edgeStyle=orthogonalEdgeStyle;rounded=0;orthogonalLoop=1;jettySize=auto;html=1;exitX=1;exitY=0.5;exitDx=0;exitDy=0;entryX=0.5;entryY=0;entryDx=0;entryDy=0;" edge="1" parent="1" source="P09A3FuEv-amuVJtXjTk-10" target="P09A3FuEv-amuVJtXjTk-22">
          <mxGeometry relative="1" as="geometry" />
        </mxCell>
        <mxCell id="P09A3FuEv-amuVJtXjTk-10" value="Feature store" style="rounded=1;whiteSpace=wrap;html=1;" vertex="1" parent="1">
          <mxGeometry x="560" y="160" width="80" height="40" as="geometry" />
        </mxCell>
        <mxCell id="P09A3FuEv-amuVJtXjTk-22" value="Model training" style="rounded=1;whiteSpace=wrap;html=1;" vertex="1" parent="1">
          <mxGeometry x="720" y="240" width="80" height="40" as="geometry" />
        </mxCell>
        <mxCell id="P09A3FuEv-amuVJtXjTk-28" style="edgeStyle=orthogonalEdgeStyle;rounded=0;orthogonalLoop=1;jettySize=auto;html=1;exitX=0.5;exitY=1;exitDx=0;exitDy=0;entryX=0.25;entryY=0;entryDx=0;entryDy=0;" edge="1" parent="1" source="P09A3FuEv-amuVJtXjTk-25" target="P09A3FuEv-amuVJtXjTk-8">
          <mxGeometry relative="1" as="geometry">
            <Array as="points">
              <mxPoint x="280" y="120" />
              <mxPoint x="420" y="120" />
            </Array>
          </mxGeometry>
        </mxCell>
        <mxCell id="P09A3FuEv-amuVJtXjTk-25" value="Data governance" style="rounded=1;whiteSpace=wrap;html=1;" vertex="1" parent="1">
          <mxGeometry x="240" y="40" width="80" height="40" as="geometry" />
        </mxCell>
        <mxCell id="P09A3FuEv-amuVJtXjTk-30" style="edgeStyle=orthogonalEdgeStyle;rounded=0;orthogonalLoop=1;jettySize=auto;html=1;exitX=0.5;exitY=1;exitDx=0;exitDy=0;" edge="1" parent="1" source="P09A3FuEv-amuVJtXjTk-26" target="P09A3FuEv-amuVJtXjTk-8">
          <mxGeometry relative="1" as="geometry" />
        </mxCell>
        <mxCell id="P09A3FuEv-amuVJtXjTk-26" value="Data monitoring" style="rounded=1;whiteSpace=wrap;html=1;" vertex="1" parent="1">
          <mxGeometry x="400" y="40" width="80" height="40" as="geometry" />
        </mxCell>
        <mxCell id="P09A3FuEv-amuVJtXjTk-29" style="edgeStyle=orthogonalEdgeStyle;rounded=0;orthogonalLoop=1;jettySize=auto;html=1;exitX=0.5;exitY=1;exitDx=0;exitDy=0;entryX=0.75;entryY=0;entryDx=0;entryDy=0;" edge="1" parent="1" source="P09A3FuEv-amuVJtXjTk-27" target="P09A3FuEv-amuVJtXjTk-8">
          <mxGeometry relative="1" as="geometry">
            <Array as="points">
              <mxPoint x="600" y="120" />
              <mxPoint x="460" y="120" />
            </Array>
          </mxGeometry>
        </mxCell>
        <mxCell id="P09A3FuEv-amuVJtXjTk-27" value="Data lineage" style="rounded=1;whiteSpace=wrap;html=1;" vertex="1" parent="1">
          <mxGeometry x="560" y="40" width="80" height="40" as="geometry" />
        </mxCell>
      </root>
    </mxGraphModel>
  </diagram>
</mxfile>
